# xmcd CD database file
# Copyright (C) 1997 Ti Kan
#
# Track frame offsets:
#  195
#  10125
#  26602
#  60660
#  73050
#  113642
#  127865
#  143435
#  164840
#  178312
#  193552
#  215510
#
# Disc length: 2964 seconds
#
# Revision: 1
# Processed by: cddbd v1.4b41PL1 Copyright (c) Steve Scherf et al.
# Submitted via: CDWizzard Release:4.31
#
DISCID=a90b920c
DTITLE=Riders In The Sky - Riders In The Sky - Live
DYEAR=1900
DGENRE=
TTITLE0=Cowboy Jubilee
TTITLE1=Yodel Blues
TTITLE2=When The Bloom Is On The Sage and The World's Second Oldest Instrum
TTITLE2=ent
TTITLE3=After You're Gone
TTITLE4=Cowboy Song and Varmint Dancing(Turkey in the Straw/Chicken Reel)& 
TTITLE4=John McDonald,for Riders In The Sky
TTITLE5=Hold That Critter Down
TTITLE6=Cielito Lindo
TTITLE7=The Last Roundup and Too Slim's Mercantile/The Secret of Woody Paul
TTITLE7='s Success
TTITLE8=I Grab My Saddle Horn And Blow
TTITLE9=Blue Bonnet Lady
TTITLE10=When Payday Rolls Around and Too Slim's Trail Tip
TTITLE11=So Long Saddle Pals
EXTD=
EXTT0=Riders In The Sky
EXTT1=Riders In The Sky
EXTT2=Riders In The Sky
EXTT3=Riders In The Sky
EXTT4=Riders In The Sky
EXTT5=Riders In The Sky
EXTT6=Riders In The Sky
EXTT7=Riders In The Sky
EXTT8=Riders In The Sky
EXTT9=Riders In The Sky
EXTT10=Riders In The Sky
EXTT11=Riders In The Sky
PLAYORDER=
